<svg width="120px" height="35px" viewBox="0 0 120 35" version="1.1" xmlns="http://www.w3.org/2000/svg" xmlns:xlink="http://www.w3.org/1999/xlink">
    <g id="flat" stroke="none" stroke-width="1" fill="none" fill-rule="evenodd">
        <g id="Group" transform="translate(4.000000, 3.000000)">
            <g id="Group-53" stroke="#CCCCCC">
                <path d="M11.4293427,2.2805032 C11.3037117,1.88580112 11.0299896,1.57938747 10.6889997,1.40305707 C10.3480098,1.22672668 9.93975207,1.18047956 9.54504999,1.30611053 L1.54504999,3.85245587 C1.23385317,3.95150769 0.97259067,4.14555319 0.789127378,4.39648081 C0.605664086,4.64740844 0.5,4.9552182 0.5,5.28179855 L0.5,26.1423488 C0.5,26.3157255 0.530057817,26.4877898 0.588838236,26.6508982 C0.72927027,27.0405798 1.01435728,27.3364489 1.36175666,27.4997896 C1.70915605,27.6631303 2.11886782,27.6939426 2.50854938,27.5535106 L10.5085494,24.6704995 C10.8059962,24.5633067 11.0538588,24.3686023 11.2273598,24.1216532 C11.4008607,23.874704 11.5,23.5755099 11.5,23.2593377 L11.4293427,2.2805032 Z" id="Rectangle"></path>
                <path d="M22.4293427,2.2805032 C22.3037117,1.88580112 22.0299896,1.57938747 21.6889997,1.40305707 C21.3480098,1.22672668 20.9397521,1.18047956 20.54505,1.30611053 L12.54505,3.85245587 C12.2338532,3.95150769 11.9725907,4.14555319 11.7891274,4.39648081 C11.6056641,4.64740844 11.5,4.9552182 11.5,5.28179855 L11.5,26.1423488 C11.5,26.3157255 11.5300578,26.4877898 11.5888382,26.6508982 C11.7292703,27.0405798 12.0143573,27.3364489 12.3617567,27.4997896 C12.7091561,27.6631303 13.1188678,27.6939426 13.5085494,27.5535106 L21.5085494,24.6704995 C21.8059962,24.5633067 22.0538588,24.3686023 22.2273598,24.1216532 C22.4008607,23.874704 22.5,23.5755099 22.5,23.2593377 L22.4293427,2.2805032 Z" id="Rectangle" transform="translate(17.000000, 14.494505) scale(-1, 1) translate(-17.000000, -14.494505) "></path>
                <path d="M33.4293427,2.2805032 C33.3037117,1.88580112 33.0299896,1.57938747 32.6889997,1.40305707 C32.3480098,1.22672668 31.9397521,1.18047956 31.54505,1.30611053 L23.54505,3.85245587 C23.2338532,3.95150769 22.9725907,4.14555319 22.7891274,4.39648081 C22.6056641,4.64740844 22.5,4.9552182 22.5,5.28179855 L22.5,26.1423488 C22.5,26.3157255 22.5300578,26.4877898 22.5888382,26.6508982 C22.7292703,27.0405798 23.0143573,27.3364489 23.3617567,27.4997896 C23.7091561,27.6631303 24.1188678,27.6939426 24.5085494,27.5535106 L32.5085494,24.6704995 C32.8059962,24.5633067 33.0538588,24.3686023 33.2273598,24.1216532 C33.4008607,23.874704 33.5,23.5755099 33.5,23.2593377 L33.4293427,2.2805032 Z" id="Rectangle"></path>
                <path d="M44.4293427,2.2805032 C44.3037117,1.88580112 44.0299896,1.57938747 43.6889997,1.40305707 C43.3480098,1.22672668 42.9397521,1.18047956 42.54505,1.30611053 L34.54505,3.85245587 C34.2338532,3.95150769 33.9725907,4.14555319 33.7891274,4.39648081 C33.6056641,4.64740844 33.5,4.9552182 33.5,5.28179855 L33.5,26.1423488 C33.5,26.3157255 33.5300578,26.4877898 33.5888382,26.6508982 C33.7292703,27.0405798 34.0143573,27.3364489 34.3617567,27.4997896 C34.7091561,27.6631303 35.1188678,27.6939426 35.5085494,27.5535106 L43.5085494,24.6704995 C43.8059962,24.5633067 44.0538588,24.3686023 44.2273598,24.1216532 C44.4008607,23.874704 44.5,23.5755099 44.5,23.2593377 L44.4293427,2.2805032 Z" id="Rectangle" transform="translate(39.000000, 14.494505) scale(-1, 1) translate(-39.000000, -14.494505) "></path>
            </g>
            <rect id="Rectangle" stroke="#FFFFFF" stroke-width="2" x="74" y="2" width="38" height="25" rx="3"></rect>
            <line x1="59" y1="5" x2="59" y2="25.6894531" id="Line" stroke="#BBBBBB" stroke-linecap="square"></line>
        </g>
    </g>
</svg>
