<svg width="190px" height="210px" viewBox="0 0 190 210" version="1.1" xmlns="http://www.w3.org/2000/svg" xmlns:xlink="http://www.w3.org/1999/xlink">
    <g id="legend" stroke="none" stroke-width="1" fill="none" fill-rule="evenodd">
        <rect id="Rectangle" stroke="#B3BDC7" stroke-width="2" fill="#FFFFFF" x="1" y="1" width="188" height="208" rx="8"></rect>
        <g id="Group-2" transform="translate(16.000000, 60.000000)">
            <circle id="Oval" stroke="#2F87B6" fill="#FFFDFD" cx="9" cy="9" r="8.5"></circle>
            <circle id="Oval" fill="#2F87B6" cx="9" cy="9" r="5.625"></circle>
        </g>
        <text id="Внеклассные-станции" font-family="FSRAILWAYBook, FSRAILWAY Book" font-size="11" font-weight="normal" fill="#68798B">
            <tspan x="48" y="72">Внеклассные станции</tspan>
        </text>
        <circle id="Oval" stroke="#2F87B6" stroke-width="2" fill="#FFFDFD" cx="25" cy="91" r="7"></circle>
        <g id="Oval" transform="translate(19.000000, 107.000000)" fill="#FFFDFD" stroke="#2F87B6">
            <circle cx="6" cy="6" r="5.5"></circle>
        </g>
        <text id="Обозначения" font-family="FSRAILWAYBook, FSRAILWAY Book" font-size="16" font-weight="normal" fill="#68798B">
            <tspan x="43.032" y="22">Обозначения</tspan>
        </text>
        <text id="Станции-1-класса" font-family="FSRAILWAYBook, FSRAILWAY Book" font-size="11" font-weight="normal" fill="#68798B">
            <tspan x="45" y="94"> Станции 1 класса</tspan>
        </text>
        <text id="Станции-2-класса" font-family="FSRAILWAYBook, FSRAILWAY Book" font-size="11" font-weight="normal" fill="#68798B">
            <tspan x="48" y="116">Станции 2 класса</tspan>
        </text>
        <text id="Станции-3-5-классов" font-family="FSRAILWAYBook, FSRAILWAY Book" font-size="11" font-weight="normal" fill="#68798B">
            <tspan x="46" y="136"> Станции 3-5 классов</tspan>
        </text>
        <g id="st" transform="translate(11.000000, 29.000000)" fill="#8AE06C" stroke="#5AC237" stroke-width="2">
            <path d="M19.7037037,5.2962963 L9.2962963,5.2962963 C8.1917268,5.2962963 7.1917268,5.74401155 6.46786917,6.46786917 C5.74401155,7.1917268 5.2962963,8.1917268 5.2962963,9.2962963 L5.2962963,19.7037037 C5.2962963,20.8082732 5.74401155,21.8082732 6.46786917,22.5321308 C7.1917268,23.2559885 8.1917268,23.7037037 9.2962963,23.7037037 L19.7037037,23.7037037 C20.8082732,23.7037037 21.8082732,23.2559885 22.5321308,22.5321308 C23.2559885,21.8082732 23.7037037,20.8082732 23.7037037,19.7037037 L23.7037037,9.2962963 C23.7037037,8.1917268 23.2559885,7.1917268 22.5321308,6.46786917 C21.8082732,5.74401155 20.8082732,5.2962963 19.7037037,5.2962963 Z" id="Rectangle" transform="translate(14.500000, 14.500000) rotate(-45.000000) translate(-14.500000, -14.500000) "></path>
        </g>
        <text id="Пассажирские-станции" font-family="FSRAILWAYBook, FSRAILWAY Book" font-size="11" font-weight="normal" fill="#68798B">
            <tspan x="48" y="49">Пассажирские станции</tspan>
        </text>
        <text id="Порт" font-family="FSRAILWAYBook, FSRAILWAY Book" font-size="11" font-weight="normal" fill="#68798B">
            <tspan x="49" y="192">Порт</tspan>
        </text>
        <circle id="Oval" stroke="#828282" fill="#FFFCFC" cx="25" cy="132" r="3.5"></circle>
        <g id="port" transform="translate(15.000000, 179.000000)">
            <circle id="Oval" stroke="#2F87B6" stroke-width="2" fill="#FFFFFF" cx="10" cy="10" r="9"></circle>
            <path d="M9.9993155,2.35294118 C10.8408585,2.35294118 11.5230638,3.00874849 11.5230638,3.81772781 C11.5230638,4.39289375 11.1782167,4.89063297 10.6764364,5.13030285 L10.707918,6.10110703 L13.1490699,6.10110703 L13.1490699,7.19649279 L10.7966049,7.19649279 L10.8888036,11.9352492 C10.9387817,12.4395135 11.0035807,12.8067305 11.0832005,13.0369004 C11.1628203,13.2670702 11.2706831,13.4703761 11.4067887,13.6468181 C11.6131892,13.8749662 11.8308689,14.0149792 12.059828,14.0668571 C12.288787,14.1187349 12.5824558,14.0747055 12.9408342,13.9347688 C13.2826693,13.7179412 13.5288994,13.5315146 13.6795248,13.3754892 C13.8301501,13.2194638 14.0035162,12.9712511 14.1996229,12.6308512 L14.1996229,12.6308512 L13.4705451,12.6308512 C13.8129527,12.1671963 14.0559787,11.7926267 14.1996229,11.5071424 C14.3432672,11.2216582 14.5041734,10.793437 14.6823416,10.2224788 C15.1622576,10.939483 15.4706777,11.4778684 15.6076021,11.8376349 C15.7445264,12.1974014 15.83611,12.7100195 15.8823529,13.3754892 L15.8823529,13.3754892 L15.1666079,12.9486412 C14.9377282,13.5912973 14.6153999,14.1459136 14.1996229,14.6124901 C13.783846,15.0790666 13.1017504,15.5178541 12.1533361,15.9288527 C11.5514247,16.1364807 11.1299139,16.3364584 10.8888036,16.5287858 C10.6476933,16.7211132 10.3511973,17.0938709 9.9993155,17.6470588 L10.0006471,17.6439412 L9.9993155,17.6470588 L9.99864706,17.6419412 L9.87132504,17.4463258 C9.57554412,17.0017555 9.32216792,16.6953271 9.11119643,16.5270406 C8.87008615,16.3347132 8.4485753,16.1347355 7.8466639,15.9271075 C6.89824962,15.516109 6.21615401,15.0773214 5.80037707,14.6107449 C5.38460012,14.1441684 5.0622718,13.5895522 4.83339211,12.9468961 L4.11764706,13.3737441 C4.16388996,12.7082744 4.25547359,12.1956563 4.39239792,11.8358898 C4.52932226,11.4761233 4.83774241,10.9377379 5.31765837,10.2207336 C5.4958266,10.7916918 5.65673283,11.219913 5.80037707,11.5053973 C5.9440213,11.7908815 6.18704725,12.1654511 6.52945492,12.6291061 L5.80037707,12.6291061 C5.99648383,12.969506 6.16984988,13.2177187 6.32047522,13.3737441 C6.47110056,13.5297695 6.71733074,13.716196 7.05916578,13.9330236 C7.41754424,14.0729604 7.71121299,14.1169898 7.94017205,14.0651119 C8.1691311,14.0132341 8.38681085,13.8732211 8.59321128,13.6450729 C8.72931693,13.468631 8.83717966,13.2653251 8.91679947,13.0351552 C8.99641929,12.8049854 9.06121827,12.4377683 9.11119643,11.9335041 L9.2033951,7.19474763 L6.8509301,7.19474763 L6.8509301,6.09936187 L9.29208201,6.09936187 L9.32415673,5.13123835 C8.82131353,4.89192987 8.4755672,4.39364315 8.4755672,3.81772781 C8.4755672,3.00874849 9.15777255,2.35294118 9.9993155,2.35294118 Z" id="Combined-Shape" fill="#2F87B6" transform="translate(10.000000, 10.000000) scale(-1, 1) translate(-10.000000, -10.000000) "></path>
        </g>
        <g id="zd_vkz" transform="translate(16.000000, 141.000000)" fill="#364A58">
            <path d="M9.67980574,0.300471737 L11.0744652,1.58449598 C11.485787,1.96318852 11.7198166,2.49676433 11.7198166,3.05586509 L11.7198166,13.4940115 L6.3,13.4940115 L6.3,3.0515224 C6.3,2.49495795 6.53191819,1.96356527 6.93999729,1.58510069 L8.32248006,0.302945432 C8.70500601,-0.0518204025 9.29598923,-0.0528974561 9.67980574,0.300471737 Z M9,3.58633655 C8.00588745,3.58633655 7.2,4.392224 7.2,5.38633655 C7.2,6.3804491 8.00588745,7.18633655 9,7.18633655 C9.99411255,7.18633655 10.8,6.3804491 10.8,5.38633655 C10.8,4.392224 9.99411255,3.58633655 9,3.58633655 Z" id="Combined-Shape"></path>
            <path d="M14.6619472,8.09401146 C15.0450345,8.09401146 15.4200624,8.20403336 15.7424337,8.4109937 L17.0804866,9.27001501 C17.6535218,9.63789994 18,10.2720712 18,10.9530328 L18,18.8940115 L0,18.8940115 L0,10.939714 C8.05678619e-16,10.266052 0.339140459,9.63765172 0.90225965,9.26789874 L2.19023117,8.42219624 C2.51630923,8.20808822 2.89788289,8.09401146 3.28797152,8.09401146 L14.6619472,8.09401146 Z M2.10491266,14.3863365 C1.30163755,14.3863365 0.9,14.852617 0.9,15.7851778 L0.9,15.7851778 L0.9,17.9863365 L3.30982532,17.9863365 L3.30982532,15.7851778 C3.30982532,14.852617 2.90818777,14.3863365 2.10491266,14.3863365 Z M15.8929127,14.3863365 C15.0896376,14.3863365 14.688,14.852617 14.688,15.7851778 L14.688,15.7851778 L14.688,17.9863365 L17.0978253,17.9863365 L17.0978253,15.7851778 C17.0978253,14.852617 16.6961878,14.3863365 15.8929127,14.3863365 Z M5.55191266,14.3863365 C4.74863755,14.3863365 4.347,14.852617 4.347,15.7851778 L4.347,15.7851778 L4.347,17.9863365 L6.75682532,17.9863365 L6.75682532,15.7851778 C6.75682532,14.852617 6.35518777,14.3863365 5.55191266,14.3863365 Z M12.4459127,14.3863365 C11.6426376,14.3863365 11.241,14.852617 11.241,15.7851778 L11.241,15.7851778 L11.241,17.9863365 L13.6508253,17.9863365 L13.6508253,15.7851778 C13.6508253,14.852617 13.2491878,14.3863365 12.4459127,14.3863365 Z M8.99891266,14.3863365 C8.19563755,14.3863365 7.794,14.852617 7.794,15.7851778 L7.794,15.7851778 L7.794,17.9863365 L10.2038253,17.9863365 L10.2038253,15.7851778 C10.2038253,14.852617 9.80218777,14.3863365 8.99891266,14.3863365 Z" id="Combined-Shape"></path>
        </g>
        <text id="Вокзал" font-family="FSRAILWAYBook, FSRAILWAY Book" font-size="11" font-weight="normal" fill="#68798B">
            <tspan x="49" y="156">Вокзал</tspan>
        </text>
        <line x1="51" y1="170.5" x2="155" y2="170.5" id="Path-79" stroke="#D3D3D3"></line>
    </g>
</svg>
